<?xml version="1.0" encoding="UTF-8" standalone="no"?>
<!DOCTYPE svg PUBLIC "-//W3C//DTD SVG 1.1//EN" "http://www.w3.org/Graphics/SVG/1.1/DTD/svg11.dtd">
<svg width="100%" height="100%" viewBox="0 0 512 512" version="1.1" xmlns="http://www.w3.org/2000/svg" xmlns:xlink="http://www.w3.org/1999/xlink" xml:space="preserve" xmlns:serif="http://www.serif.com/" style="fill-rule:evenodd;clip-rule:evenodd;stroke-linejoin:round;stroke-miterlimit:2;">
    <g transform="matrix(1.86085,0,0,1.86085,-2124.02,-933.08)">
      <path id="CompoundPath-1"
            d="M1246,591.459C1246.26,590.03 1246.05,588.203 1246.04,586.728L1246.01,573.873C1246.01,571.593 1245.78,569.049 1246.18,566.81C1246.47,565.154 1247.23,563.276 1248.22,561.916C1248.53,561.493 1248.89,561.142 1249.31,560.836C1251.08,559.558 1253,558.463 1254.85,557.317L1263.5,551.974C1267.3,549.672 1271.02,547.105 1274.91,544.986C1275.99,544.402 1277.57,543.49 1278.79,543.343C1280.7,543.112 1283.55,543.283 1285.34,543.961C1288.03,544.978 1290.53,546.733 1292.97,548.224L1303.45,554.666C1306.32,556.439 1310.84,558.899 1313.26,560.873C1314.94,562.246 1315.94,564.11 1316.43,566.205C1316.94,568.367 1316.73,570.761 1316.73,572.971L1316.71,585.021C1316.7,587.08 1316.55,589.265 1316.76,591.309C1316.77,591.356 1316.77,591.402 1316.78,591.448C1316.56,595.429 1316.23,599.252 1313.06,602.086C1312.37,602.708 1303.37,608.483 1302.69,608.723C1302.63,608.728 1302.56,608.731 1302.49,608.739C1301.84,608.812 1289.37,616.789 1288.16,617.555C1281.4,621.864 1277.15,619.422 1271.1,615.676L1263.42,610.997C1262.41,610.385 1260.97,609.089 1259.84,608.843C1258.34,608.108 1256.98,607.105 1255.56,606.226C1253.33,604.85 1250.91,603.683 1249.05,601.802C1246.1,598.812 1245.95,595.427 1246,591.459L1246,591.459ZM1270.53,575.043L1270.53,587.608C1273.04,589.288 1278.3,592.91 1280.87,593.826C1281.35,593.996 1281.84,594.015 1282.34,593.976C1285.04,592.38 1290.87,589.255 1292.88,587.198C1292.73,583.099 1292.95,578.99 1292.8,574.892C1291.43,573.566 1282.87,568.161 1281.38,568.177C1281.28,568.178 1281.18,568.184 1281.08,568.19C1279.3,569.03 1271.59,573.704 1270.53,575.043Z"
            style="fill:rgb(31,151,196);fill-rule:nonzero;"/>
      <path id="CompoundPath-1-1"
            d="M1259.31,669.153C1260.96,668.466 1262.58,667.274 1264.11,666.336C1267.9,664.001 1271.67,661.493 1275.58,659.353C1281.54,656.088 1285.4,658.334 1290.69,661.556C1293.19,663.084 1295.68,664.646 1298.14,666.239C1298.96,666.77 1300.81,668.226 1301.68,668.417C1301.73,668.426 1301.77,668.426 1301.82,668.431C1304.56,669.913 1311.56,674.132 1313.54,676.178C1314.61,677.278 1315.45,678.634 1315.88,680.107C1316.4,681.863 1316.16,683.667 1316.35,685.455C1315.47,686.693 1316.7,708.372 1315.84,712.376C1315.53,713.772 1314.69,715.38 1313.76,716.457C1312.28,718.174 1302.07,723.954 1299.28,725.645L1291.01,730.689C1288.71,732.092 1286.43,733.691 1283.88,734.58C1283.22,734.809 1282.43,734.746 1281.74,734.748C1279.33,734.759 1277.86,734.504 1275.69,733.382C1273.22,732.101 1270.9,730.546 1268.54,729.069C1265.93,727.435 1263.29,725.856 1260.65,724.259L1254.02,720.245C1252.58,719.376 1250.96,718.566 1249.68,717.468C1248.21,716.216 1247.1,714.669 1246.53,712.823C1245.55,709.654 1246,705.396 1246.01,702.05L1246.04,691.073C1246.04,689.52 1246.28,687.482 1245.95,685.981C1246.09,684.405 1245.99,682.866 1246.29,681.295C1247.17,676.733 1250.56,674.737 1254.19,672.464C1255.92,671.395 1257.63,670.291 1259.31,669.153L1259.31,669.153ZM1270.54,703.233C1272.26,704.3 1280.04,709.56 1281.58,709.633C1283.28,709.334 1290.51,704.426 1292.6,703.165C1292.39,698.935 1292.63,694.684 1292.51,690.45C1291.25,689.29 1283.09,683.922 1281.61,683.415C1279.83,683.966 1272.35,688.992 1270.51,690.26C1270.55,694.584 1270.55,698.909 1270.54,703.233L1270.54,703.233Z"
            style="fill:url(#_Linear1);fill-rule:nonzero;"/>
      <path id="CompoundPath-1-2"
            d="M1209.64,663.336C1207.82,664.264 1206.08,665.493 1204.34,666.57L1195.79,671.806C1193.69,673.116 1191.45,674.754 1189.1,675.53C1186.3,676.45 1182.63,676.166 1180.02,674.819C1178.09,673.824 1176.25,672.597 1174.41,671.445L1165.95,666.146L1158.55,661.549C1156.6,660.343 1154.5,659.209 1152.79,657.663C1151.38,656.382 1150.47,654.928 1149.9,653.095C1149.2,650.815 1149.57,639.984 1149.57,636.988C1149.57,633.161 1149.29,628.362 1149.7,624.625C1149.84,623.442 1150.24,622.372 1150.8,621.326C1151.42,620.162 1152.16,619.092 1153.21,618.273C1154.51,617.259 1156.01,616.437 1157.41,615.578L1164.76,611.124C1169.71,608.121 1174.6,604.808 1179.7,602.072C1180.55,601.609 1181.44,601.235 1182.37,600.957C1184.35,600.386 1186.45,600.385 1188.43,600.955C1191.46,601.854 1194.35,604.008 1197.01,605.68C1201.27,608.354 1205.53,611.237 1209.94,613.639C1214.19,616.131 1219.58,618.509 1220.96,623.687C1221.68,626.408 1221.12,629.368 1221.42,632.148C1221.02,633.031 1221.07,644.462 1221.29,645.821C1221.57,649.553 1221.61,653.917 1219.05,656.928C1216.78,659.598 1212.56,661.367 1209.64,663.336L1209.64,663.336ZM1173.79,632.082L1173.8,644.793C1176.06,646.236 1182.54,650.622 1184.64,651.376C1184.95,651.487 1185.2,651.463 1185.52,651.388C1185.57,651.376 1185.62,651.36 1185.67,651.346C1187.8,650.138 1189.84,648.787 1191.92,647.504C1193.43,646.573 1195.01,645.705 1196.48,644.717C1196.15,640.592 1196.38,636.304 1196.41,632.157C1194.69,630.887 1186.37,625.376 1184.61,625.42C1182.75,626.317 1180.99,627.515 1179.23,628.592C1177.42,629.707 1175.47,630.765 1173.79,632.082L1173.79,632.082Z"
            style="fill:url(#_Linear2);fill-rule:nonzero;"/>
      <path id="CompoundPath-1-3"
            d="M1350.45,612.486C1352.35,611.046 1354.59,609.929 1356.62,608.678L1363.98,604.161C1365.8,603.059 1367.57,601.85 1369.58,601.121C1371.2,600.536 1372.63,600.417 1374.34,600.658C1375.68,600.849 1377.12,601.269 1378.34,601.874C1379.62,602.511 1380.85,603.369 1382.06,604.117C1384.82,605.816 1387.56,607.535 1390.29,609.273L1399.43,614.996C1401.04,615.999 1402.73,616.953 1404.27,618.058C1405.22,618.741 1406.14,619.631 1406.85,620.565C1407.55,621.494 1408.18,622.766 1408.38,623.919C1408.64,625.455 1408.47,627.244 1408.47,628.81L1408.48,638.367L1408.47,647.609C1408.47,649.138 1408.62,650.846 1408.39,652.353C1407.97,655.051 1406.01,657.393 1403.84,658.906C1400.08,661.511 1396.01,663.775 1392.14,666.204L1384.1,671.185C1381.66,672.714 1379.12,674.581 1376.39,675.56C1374.71,676.165 1372.52,676.153 1370.77,675.829C1365.84,674.914 1352.38,664.485 1350.61,664.443C1346.02,660.929 1338.91,658.951 1337.92,652.399C1337.76,651.28 1338.02,647.707 1337.64,646.997C1337.61,646.946 1337.58,646.898 1337.55,646.848C1337.61,646.772 1337.71,646.714 1337.75,646.619C1337.95,646.068 1337.76,632.74 1337.76,630.818C1338.18,629.143 1337.83,627.042 1337.98,625.293C1338.48,619.366 1343.5,617.068 1347.93,614.217C1348.74,613.693 1349.63,613.198 1350.36,612.561C1350.39,612.536 1350.42,612.511 1350.45,612.486L1350.45,612.486ZM1362.27,632.467L1362.29,644.794C1363.98,645.899 1372.4,651.545 1373.68,651.507L1380.93,647.016C1382.03,646.331 1383.14,645.536 1384.3,644.948C1384.3,643.273 1384.53,633.091 1384.14,632.247C1384.08,632.11 1383.93,631.934 1383.82,631.826C1383,630.972 1373.86,625.425 1373.11,625.43C1369.97,627.159 1364.64,629.93 1362.27,632.467L1362.27,632.467Z"
            style="fill:rgb(67,197,139);fill-rule:nonzero;"/>
      <path id="Path-1" d="M1209.94,613.639C1217.51,609.315 1224.88,604.552 1232.3,599.981L1240.08,595.215C1242.07,594.003 1244.11,592.848 1246,591.459C1245.95,595.427 1246.1,598.812 1249.05,601.802C1250.91,603.683 1253.33,604.85 1255.56,606.226C1256.98,607.105 1258.34,608.108 1259.84,608.843C1255.26,611.553 1250.69,614.31 1246.16,617.112L1221.42,632.148C1221.12,629.368 1221.68,626.408 1220.96,623.687C1219.58,618.509 1214.19,616.131 1209.94,613.639L1209.94,613.639Z"
            style="fill:rgb(150,202,220);fill-rule:nonzero;"/>
      <path id="Path-1-1"
            d="M1221.29,645.821C1225.35,648.084 1229.28,650.653 1233.22,653.114L1249.62,663.261C1252.81,665.237 1256,667.387 1259.31,669.153C1257.63,670.291 1255.92,671.395 1254.19,672.464C1250.56,674.737 1247.17,676.733 1246.29,681.295C1245.99,682.866 1246.09,684.405 1245.95,685.981C1241.56,683.1 1236.95,680.556 1232.47,677.815C1228.32,675.276 1224.29,672.521 1220.15,669.963L1213.45,665.851C1212.18,665.068 1210.77,664.312 1209.64,663.336C1212.56,661.367 1216.78,659.598 1219.05,656.928C1221.61,653.917 1221.57,649.553 1221.29,645.821L1221.29,645.821Z"
            style="fill:rgb(31,151,196);fill-rule:nonzero;"/>
      <path id="Path-1-2"
            d="M1337.55,646.848C1337.58,646.898 1337.61,646.946 1337.64,646.997C1338.02,647.707 1337.76,651.28 1337.92,652.399C1338.91,658.951 1346.02,660.929 1350.61,664.443C1348.42,665.97 1346.06,667.292 1343.78,668.683C1339.76,671.158 1335.72,673.612 1331.67,676.044L1320.19,683.071C1318.91,683.846 1317.65,684.735 1316.35,685.455C1316.16,683.667 1316.4,681.863 1315.88,680.107C1315.45,678.634 1314.61,677.278 1313.54,676.178C1311.56,674.132 1304.56,669.913 1301.82,668.431C1303.67,667.036 1305.85,665.908 1307.83,664.681C1312.58,661.761 1317.35,658.872 1322.13,656.016L1332.45,649.768C1334.13,648.768 1335.78,647.692 1337.55,646.848Z"
            style="fill:rgb(150,202,220);fill-rule:nonzero;"/>
      <path id="Path-1-3"
            d="M1316.78,591.448C1320.58,594.385 1325.06,596.753 1329.14,599.304C1336.22,603.72 1343.25,608.269 1350.45,612.486C1350.42,612.511 1350.39,612.536 1350.36,612.561C1349.63,613.198 1348.74,613.693 1347.93,614.217C1343.5,617.068 1338.48,619.366 1337.98,625.293C1337.83,627.042 1338.18,629.143 1337.76,630.818C1335.72,629.11 1332.01,627.165 1329.66,625.692C1323.35,621.727 1317.03,617.795 1310.69,613.896C1308.34,612.454 1304.66,610.563 1302.69,608.723C1303.37,608.483 1312.37,602.708 1313.06,602.086C1316.23,599.252 1316.56,595.429 1316.78,591.448L1316.78,591.448Z"
            style="fill:rgb(42,179,158);fill-rule:nonzero;"/>
    </g>
  <defs>
        <linearGradient id="_Linear1" x1="0" y1="0" x2="1" y2="0" gradientUnits="userSpaceOnUse" gradientTransform="matrix(-69.8703,-0.79666,0.79666,-69.8703,1315.9,696.573)"><stop offset="0" style="stop-color:rgb(42,181,162);stop-opacity:1"/>
          <stop offset="1" style="stop-color:rgb(23,159,175);stop-opacity:1"/></linearGradient>
    <linearGradient id="_Linear2" x1="0" y1="0" x2="1" y2="0" gradientUnits="userSpaceOnUse" gradientTransform="matrix(71.6785,-1.49067,1.49067,71.6785,1149.54,638.986)"><stop offset="0" style="stop-color:rgb(7,119,197);stop-opacity:1"/>
      <stop offset="1" style="stop-color:rgb(32,150,197);stop-opacity:1"/></linearGradient>
    </defs>
</svg>
